<?xml version="1.0" encoding="UTF-8" ?>
<svg version="1.1" width="32" height="32" xmlns="http://www.w3.org/2000/svg" shape-rendering="crispEdges">
<rect x="13" y="3" width="6" height="1" fill="#726F8B" />
<rect x="11" y="4" width="2" height="1" fill="#726F8B" />
<rect x="13" y="4" width="1" height="1" fill="#1C1B2C" />
<rect x="14" y="4" width="4" height="1" fill="#222034" />
<rect x="18" y="4" width="1" height="1" fill="#1C1B2C" />
<rect x="19" y="4" width="2" height="1" fill="#726F8B" />
<rect x="10" y="5" width="1" height="1" fill="#726F8B" />
<rect x="11" y="5" width="2" height="1" fill="#1C1B2C" />
<rect x="13" y="5" width="1" height="1" fill="#222034" />
<rect x="14" y="5" width="4" height="1" fill="#1C1B2C" />
<rect x="18" y="5" width="1" height="1" fill="#222034" />
<rect x="19" y="5" width="2" height="1" fill="#1C1B2C" />
<rect x="21" y="5" width="1" height="1" fill="#726F8B" />
<rect x="9" y="6" width="1" height="1" fill="#726F8B" />
<rect x="10" y="6" width="1" height="1" fill="#1C1B2C" />
<rect x="11" y="6" width="1" height="1" fill="#222034" />
<rect x="12" y="6" width="1" height="1" fill="#A5A3D1" />
<rect x="13" y="6" width="1" height="1" fill="#1C1B2C" />
<rect x="14" y="6" width="4" height="1" fill="#222034" />
<rect x="18" y="6" width="1" height="1" fill="#1C1B2C" />
<rect x="19" y="6" width="2" height="1" fill="#222034" />
<rect x="21" y="6" width="1" height="1" fill="#1C1B2C" />
<rect x="22" y="6" width="1" height="1" fill="#726F8B" />
<rect x="8" y="7" width="1" height="1" fill="#726F8B" />
<rect x="9" y="7" width="1" height="1" fill="#1C1B2C" />
<rect x="10" y="7" width="1" height="1" fill="#222034" />
<rect x="11" y="7" width="1" height="1" fill="#A5A3D1" />
<rect x="12" y="7" width="1" height="1" fill="#1C1B2C" />
<rect x="13" y="7" width="2" height="1" fill="#222034" />
<rect x="15" y="7" width="2" height="1" fill="#1C1B2C" />
<rect x="17" y="7" width="2" height="1" fill="#222034" />
<rect x="19" y="7" width="1" height="1" fill="#1C1B2C" />
<rect x="20" y="7" width="2" height="1" fill="#222034" />
<rect x="22" y="7" width="1" height="1" fill="#1C1B2C" />
<rect x="23" y="7" width="1" height="1" fill="#726F8B" />
<rect x="7" y="8" width="1" height="1" fill="#726F8B" />
<rect x="8" y="8" width="1" height="10" fill="#1C1B2C" />
<rect x="9" y="8" width="1" height="1" fill="#222034" />
<rect x="10" y="8" width="1" height="1" fill="#A5A3D1" />
<rect x="11" y="8" width="1" height="1" fill="#1C1B2C" />
<rect x="12" y="8" width="2" height="1" fill="#222034" />
<rect x="14" y="8" width="1" height="1" fill="#1C1B2C" />
<rect x="15" y="8" width="2" height="1" fill="#222034" />
<rect x="17" y="8" width="1" height="1" fill="#1C1B2C" />
<rect x="18" y="8" width="2" height="1" fill="#222034" />
<rect x="20" y="8" width="2" height="1" fill="#1C1B2C" />
<rect x="22" y="8" width="1" height="7" fill="#222034" />
<rect x="23" y="8" width="1" height="10" fill="#1C1B2C" />
<rect x="24" y="8" width="1" height="1" fill="#726F8B" />
<rect x="6" y="9" width="1" height="2" fill="#726F8B" />
<rect x="7" y="9" width="1" height="1" fill="#1C1B2C" />
<rect x="9" y="9" width="1" height="1" fill="#A5A3D1" />
<rect x="10" y="9" width="1" height="3" fill="#1C1B2C" />
<rect x="11" y="9" width="2" height="1" fill="#222034" />
<rect x="13" y="9" width="1" height="1" fill="#1C1B2C" />
<rect x="14" y="9" width="1" height="1" fill="#222034" />
<rect x="15" y="9" width="2" height="1" fill="#1C1B2C" />
<rect x="17" y="9" width="1" height="1" fill="#222034" />
<rect x="18" y="9" width="1" height="1" fill="#1C1B2C" />
<rect x="19" y="9" width="2" height="1" fill="#222034" />
<rect x="21" y="9" width="1" height="3" fill="#1C1B2C" />
<rect x="24" y="9" width="1" height="1" fill="#1C1B2C" />
<rect x="25" y="9" width="1" height="2" fill="#726F8B" />
<rect x="7" y="10" width="1" height="19" fill="#222034" />
<rect x="9" y="10" width="1" height="5" fill="#222034" />
<rect x="11" y="10" width="10" height="1" fill="#8F563B" />
<rect x="24" y="10" width="1" height="19" fill="#222034" />
<rect x="5" y="11" width="1" height="18" fill="#726F8B" />
<rect x="6" y="11" width="1" height="18" fill="#1C1B2C" />
<rect x="11" y="11" width="1" height="1" fill="#8F563B" />
<rect x="12" y="11" width="1" height="1" fill="#A3674A" />
<rect x="13" y="11" width="1" height="1" fill="#AA7844" />
<rect x="14" y="11" width="4" height="3" fill="#B07E4A" />
<rect x="18" y="11" width="1" height="1" fill="#AA7844" />
<rect x="19" y="11" width="1" height="1" fill="#A3674A" />
<rect x="20" y="11" width="1" height="1" fill="#8F563B" />
<rect x="25" y="11" width="1" height="18" fill="#1C1B2C" />
<rect x="26" y="11" width="1" height="18" fill="#726F8B" />
<rect x="10" y="12" width="1" height="3" fill="#8F563B" />
<rect x="11" y="12" width="1" height="1" fill="#A3674A" />
<rect x="12" y="12" width="1" height="1" fill="#AA7844" />
<rect x="13" y="12" width="1" height="2" fill="#B07E4A" />
<rect x="18" y="12" width="1" height="2" fill="#B07E4A" />
<rect x="19" y="12" width="1" height="1" fill="#AA7844" />
<rect x="20" y="12" width="1" height="1" fill="#A3674A" />
<rect x="21" y="12" width="1" height="3" fill="#8F563B" />
<rect x="11" y="13" width="1" height="1" fill="#AA7844" />
<rect x="12" y="13" width="1" height="1" fill="#B07E4A" />
<rect x="19" y="13" width="1" height="1" fill="#B07E4A" />
<rect x="20" y="13" width="1" height="1" fill="#AA7844" />
<rect x="11" y="14" width="1" height="2" fill="#B07E4A" />
<rect x="12" y="14" width="3" height="1" fill="#222034" />
<rect x="15" y="14" width="2" height="7" fill="#B07E4A" />
<rect x="17" y="14" width="3" height="1" fill="#222034" />
<rect x="20" y="14" width="1" height="2" fill="#B07E4A" />
<rect x="9" y="15" width="1" height="1" fill="#8F563B" />
<rect x="10" y="15" width="1" height="1" fill="#AA7844" />
<rect x="12" y="15" width="3" height="1" fill="#B07E4A" />
<rect x="17" y="15" width="3" height="1" fill="#B07E4A" />
<rect x="21" y="15" width="1" height="1" fill="#AA7844" />
<rect x="22" y="15" width="1" height="1" fill="#8F563B" />
<rect x="9" y="16" width="1" height="1" fill="#AA7844" />
<rect x="10" y="16" width="1" height="5" fill="#B07E4A" />
<rect x="11" y="16" width="2" height="1" fill="#222034" />
<rect x="13" y="16" width="2" height="1" fill="#B07E4A" />
<rect x="17" y="16" width="2" height="1" fill="#B07E4A" />
<rect x="19" y="16" width="2" height="1" fill="#222034" />
<rect x="21" y="16" width="1" height="4" fill="#B07E4A" />
<rect x="22" y="16" width="1" height="1" fill="#AA7844" />
<rect x="9" y="17" width="1" height="1" fill="#B07E4A" />
<rect x="11" y="17" width="1" height="3" fill="#FFFFFF" />
<rect x="12" y="17" width="2" height="3" fill="#222034" />
<rect x="14" y="17" width="1" height="7" fill="#B07E4A" />
<rect x="17" y="17" width="1" height="7" fill="#B07E4A" />
<rect x="18" y="17" width="2" height="3" fill="#222034" />
<rect x="20" y="17" width="1" height="3" fill="#FFFFFF" />
<rect x="22" y="17" width="1" height="1" fill="#B07E4A" />
<rect x="8" y="18" width="1" height="1" fill="#FBFB36" />
<rect x="9" y="18" width="1" height="8" fill="#222034" />
<rect x="22" y="18" width="1" height="8" fill="#222034" />
<rect x="23" y="18" width="1" height="1" fill="#FBFB36" />
<rect x="8" y="19" width="1" height="5" fill="#1C1B2C" />
<rect x="23" y="19" width="1" height="5" fill="#1C1B2C" />
<rect x="11" y="20" width="3" height="1" fill="#B07E4A" />
<rect x="18" y="20" width="3" height="1" fill="#B07E4A" />
<rect x="21" y="20" width="1" height="1" fill="#A3674A" />
<rect x="10" y="21" width="1" height="2" fill="#222034" />
<rect x="11" y="21" width="1" height="1" fill="#A3674A" />
<rect x="12" y="21" width="1" height="1" fill="#AA7844" />
<rect x="13" y="21" width="1" height="2" fill="#B07E4A" />
<rect x="15" y="21" width="2" height="1" fill="#8F563B" />
<rect x="18" y="21" width="1" height="2" fill="#B07E4A" />
<rect x="19" y="21" width="1" height="1" fill="#AA7844" />
<rect x="20" y="21" width="1" height="1" fill="#A3674A" />
<rect x="21" y="21" width="1" height="1" fill="#8F563B" />
<rect x="11" y="22" width="1" height="1" fill="#8F563B" />
<rect x="12" y="22" width="1" height="1" fill="#A3674A" />
<rect x="15" y="22" width="2" height="2" fill="#B07E4A" />
<rect x="19" y="22" width="1" height="1" fill="#A3674A" />
<rect x="20" y="22" width="1" height="1" fill="#8F563B" />
<rect x="21" y="22" width="1" height="1" fill="#222034" />
<rect x="10" y="23" width="1" height="3" fill="#1C1B2C" />
<rect x="11" y="23" width="1" height="1" fill="#222034" />
<rect x="12" y="23" width="1" height="1" fill="#8F563B" />
<rect x="13" y="23" width="1" height="1" fill="#A3674A" />
<rect x="18" y="23" width="1" height="1" fill="#A3674A" />
<rect x="19" y="23" width="1" height="1" fill="#8F563B" />
<rect x="20" y="23" width="1" height="1" fill="#222034" />
<rect x="21" y="23" width="1" height="3" fill="#1C1B2C" />
<rect x="8" y="24" width="1" height="5" fill="#726F8B" />
<rect x="11" y="24" width="1" height="1" fill="#1C1B2C" />
<rect x="12" y="24" width="2" height="1" fill="#222034" />
<rect x="14" y="24" width="1" height="1" fill="#A3674A" />
<rect x="15" y="24" width="2" height="1" fill="#222034" />
<rect x="17" y="24" width="1" height="1" fill="#A3674A" />
<rect x="18" y="24" width="2" height="1" fill="#222034" />
<rect x="20" y="24" width="1" height="1" fill="#1C1B2C" />
<rect x="23" y="24" width="1" height="5" fill="#726F8B" />
<rect x="11" y="25" width="1" height="3" fill="#726F8B" />
<rect x="12" y="25" width="1" height="3" fill="#222034" />
<rect x="13" y="25" width="1" height="3" fill="#1C1B2C" />
<rect x="14" y="25" width="4" height="1" fill="#726F8B" />
<rect x="18" y="25" width="1" height="3" fill="#1C1B2C" />
<rect x="19" y="25" width="1" height="3" fill="#222034" />
<rect x="20" y="25" width="1" height="3" fill="#726F8B" />
<rect x="9" y="26" width="2" height="1" fill="#726F8B" />
<rect x="14" y="26" width="1" height="2" fill="#726F8B" />
<rect x="17" y="26" width="1" height="2" fill="#726F8B" />
<rect x="21" y="26" width="2" height="1" fill="#726F8B" />
<rect x="12" y="28" width="2" height="1" fill="#726F8B" />
<rect x="18" y="28" width="2" height="1" fill="#726F8B" />
<rect x="6" y="29" width="2" height="1" fill="#726F8B" />
<rect x="24" y="29" width="2" height="1" fill="#726F8B" />
</svg>